<svg xmlns="http://www.w3.org/2000/svg" width="23" height="18" viewBox="0 0 23 18"><g><g><path fill="#8f8e91" d="M15.036-.063c1.78-.031 2.727.617 3.632 1.442.768-.066 1.767-.495 2.355-.793.19-.105.381-.21.571-.313-.335.907-.79 1.618-1.49 2.157-.156.12-.31.281-.505.357V2.8c.997-.01 1.82-.46 2.6-.705v.012c-.41.652-.965 1.314-1.557 1.788l-.718.57c.013 1.056-.016 2.064-.213 2.951-1.148 5.158-4.189 8.66-9.003 10.16-1.728.54-4.522.76-6.502.269-.982-.244-1.87-.52-2.702-.883-.462-.203-.89-.422-1.3-.671l-.404-.246c.447.013.97.137 1.469.056.451-.073.895-.054 1.311-.145 1.04-.228 1.963-.53 2.758-.995.386-.225.97-.49 1.245-.816-.517.01-.985-.11-1.368-.246-1.487-.525-2.352-1.49-2.915-2.94.45.05 1.748.167 2.052-.09-.567-.03-1.113-.359-1.503-.603C1.654 9.517.68 8.262.686 6.331l.47.223c.3.127.606.195.965.269.151.03.454.12.628.055h-.023c-.231-.269-.608-.448-.84-.737C1.117 5.187.398 3.719.853 1.97c.115-.443.298-.834.493-1.195l.023.01c.089.188.288.325.414.482.392.485.876.922 1.368 1.307 1.678 1.313 3.19 2.12 5.617 2.716a8.797 8.797 0 0 0 2.063.269c-.207-.602-.14-1.575.022-2.158.41-1.464 1.298-2.52 2.601-3.085a5.59 5.59 0 0 1 1.02-.313l.561-.067z"/></g></g></svg>